<mxfile modified="2020-08-13T19:16:15.549Z" host="app.diagrams.net" agent="5.0 (Windows NT 10.0; Win64; x64) AppleWebKit/537.36 (KHTML, like Gecko) Chrome/84.0.4147.105 Safari/537.36" etag="N_lf44vYBxzmrVKAKUJH" version="13.6.2" type="github" pages="5">
  <diagram id="1HE-wqyfYZ4CwCbwuB85" name="Page-2">
    <mxGraphModel dx="981" dy="574" grid="1" gridSize="10" guides="1" tooltips="1" connect="1" arrows="1" fold="1" page="1" pageScale="1" pageWidth="1169" pageHeight="827" math="0" shadow="0">
      <root>
        <mxCell id="BB6XXCtX2lMVDvg097Rk-0" />
        <mxCell id="BB6XXCtX2lMVDvg097Rk-1" parent="BB6XXCtX2lMVDvg097Rk-0" />
        <mxCell id="BB6XXCtX2lMVDvg097Rk-2" value="Architecting on AWS Day 3" style="text;html=1;resizable=0;points=[];autosize=1;align=left;verticalAlign=top;spacingTop=-4;fontSize=30;fontStyle=1" vertex="1" parent="BB6XXCtX2lMVDvg097Rk-1">
          <mxGeometry x="56.5" y="64.5" width="400" height="40" as="geometry" />
        </mxCell>
        <mxCell id="DdpBlTYkTWgsv1LPXZCf-0" value="LOAD BALANCER" style="rounded=1;whiteSpace=wrap;html=1;align=left;" vertex="1" parent="BB6XXCtX2lMVDvg097Rk-1">
          <mxGeometry x="585" y="384" width="120" height="60" as="geometry" />
        </mxCell>
        <mxCell id="DdpBlTYkTWgsv1LPXZCf-1" value="W4" style="rounded=1;whiteSpace=wrap;html=1;align=left;fillColor=#f8cecc;strokeColor=#b85450;" vertex="1" parent="BB6XXCtX2lMVDvg097Rk-1">
          <mxGeometry x="635" y="520" width="120" height="60" as="geometry" />
        </mxCell>
        <mxCell id="DdpBlTYkTWgsv1LPXZCf-2" value="W1" style="rounded=1;whiteSpace=wrap;html=1;align=left;" vertex="1" parent="BB6XXCtX2lMVDvg097Rk-1">
          <mxGeometry x="205" y="520" width="120" height="60" as="geometry" />
        </mxCell>
        <mxCell id="DdpBlTYkTWgsv1LPXZCf-3" value="W2" style="rounded=1;whiteSpace=wrap;html=1;align=left;fillColor=#f8cecc;strokeColor=#b85450;" vertex="1" parent="BB6XXCtX2lMVDvg097Rk-1">
          <mxGeometry x="355" y="520" width="120" height="60" as="geometry" />
        </mxCell>
        <mxCell id="DdpBlTYkTWgsv1LPXZCf-4" value="W3" style="rounded=1;whiteSpace=wrap;html=1;align=left;" vertex="1" parent="BB6XXCtX2lMVDvg097Rk-1">
          <mxGeometry x="505" y="520" width="120" height="60" as="geometry" />
        </mxCell>
        <mxCell id="DdpBlTYkTWgsv1LPXZCf-5" value="Bob" style="shape=umlActor;verticalLabelPosition=bottom;verticalAlign=top;html=1;outlineConnect=0;align=left;fillColor=#f8cecc;strokeColor=#b85450;" vertex="1" parent="BB6XXCtX2lMVDvg097Rk-1">
          <mxGeometry x="510" y="250" width="30" height="60" as="geometry" />
        </mxCell>
        <mxCell id="DdpBlTYkTWgsv1LPXZCf-6" value="" style="shape=flexArrow;endArrow=classic;html=1;entryX=0.611;entryY=0.056;entryDx=0;entryDy=0;entryPerimeter=0;" edge="1" parent="BB6XXCtX2lMVDvg097Rk-1" target="DdpBlTYkTWgsv1LPXZCf-0">
          <mxGeometry width="50" height="50" relative="1" as="geometry">
            <mxPoint x="560" y="280" as="sourcePoint" />
            <mxPoint x="660" y="520" as="targetPoint" />
          </mxGeometry>
        </mxCell>
        <mxCell id="DdpBlTYkTWgsv1LPXZCf-7" value="" style="shape=flexArrow;endArrow=classic;html=1;exitX=0.352;exitY=1.068;exitDx=0;exitDy=0;exitPerimeter=0;" edge="1" parent="BB6XXCtX2lMVDvg097Rk-1" source="DdpBlTYkTWgsv1LPXZCf-0" target="DdpBlTYkTWgsv1LPXZCf-3">
          <mxGeometry width="50" height="50" relative="1" as="geometry">
            <mxPoint x="570" y="290" as="sourcePoint" />
            <mxPoint x="668.3199999999997" y="397.36" as="targetPoint" />
          </mxGeometry>
        </mxCell>
        <mxCell id="DdpBlTYkTWgsv1LPXZCf-8" value="Jim" style="shape=umlActor;verticalLabelPosition=bottom;verticalAlign=top;html=1;outlineConnect=0;align=left;fillColor=#f8cecc;strokeColor=#b85450;" vertex="1" parent="BB6XXCtX2lMVDvg097Rk-1">
          <mxGeometry x="690" y="250" width="30" height="60" as="geometry" />
        </mxCell>
        <mxCell id="DdpBlTYkTWgsv1LPXZCf-9" value="" style="shape=flexArrow;endArrow=classic;html=1;entryX=0.611;entryY=0.056;entryDx=0;entryDy=0;entryPerimeter=0;" edge="1" parent="BB6XXCtX2lMVDvg097Rk-1" source="DdpBlTYkTWgsv1LPXZCf-8">
          <mxGeometry width="50" height="50" relative="1" as="geometry">
            <mxPoint x="570" y="290" as="sourcePoint" />
            <mxPoint x="668.3199999999997" y="397.36" as="targetPoint" />
          </mxGeometry>
        </mxCell>
        <mxCell id="DdpBlTYkTWgsv1LPXZCf-10" value="" style="shape=flexArrow;endArrow=classic;html=1;exitX=0.904;exitY=1.045;exitDx=0;exitDy=0;exitPerimeter=0;" edge="1" parent="BB6XXCtX2lMVDvg097Rk-1" source="DdpBlTYkTWgsv1LPXZCf-0" target="DdpBlTYkTWgsv1LPXZCf-1">
          <mxGeometry width="50" height="50" relative="1" as="geometry">
            <mxPoint x="705.6237218813906" y="320" as="sourcePoint" />
            <mxPoint x="678.3199999999997" y="407.36" as="targetPoint" />
          </mxGeometry>
        </mxCell>
        <mxCell id="DdpBlTYkTWgsv1LPXZCf-11" value="Jim" style="shape=umlActor;verticalLabelPosition=bottom;verticalAlign=top;html=1;outlineConnect=0;align=left;" vertex="1" parent="BB6XXCtX2lMVDvg097Rk-1">
          <mxGeometry x="700" y="260" width="30" height="60" as="geometry" />
        </mxCell>
        <mxCell id="DdpBlTYkTWgsv1LPXZCf-12" value="Jim" style="shape=umlActor;verticalLabelPosition=bottom;verticalAlign=top;html=1;outlineConnect=0;align=left;" vertex="1" parent="BB6XXCtX2lMVDvg097Rk-1">
          <mxGeometry x="710" y="270" width="30" height="60" as="geometry" />
        </mxCell>
        <mxCell id="DdpBlTYkTWgsv1LPXZCf-13" value="Jim" style="shape=umlActor;verticalLabelPosition=bottom;verticalAlign=top;html=1;outlineConnect=0;align=left;" vertex="1" parent="BB6XXCtX2lMVDvg097Rk-1">
          <mxGeometry x="720" y="280" width="30" height="60" as="geometry" />
        </mxCell>
        <mxCell id="DdpBlTYkTWgsv1LPXZCf-14" value="Jim" style="shape=umlActor;verticalLabelPosition=bottom;verticalAlign=top;html=1;outlineConnect=0;align=left;" vertex="1" parent="BB6XXCtX2lMVDvg097Rk-1">
          <mxGeometry x="730" y="290" width="30" height="60" as="geometry" />
        </mxCell>
        <mxCell id="DdpBlTYkTWgsv1LPXZCf-15" value="Jim" style="shape=umlActor;verticalLabelPosition=bottom;verticalAlign=top;html=1;outlineConnect=0;align=left;" vertex="1" parent="BB6XXCtX2lMVDvg097Rk-1">
          <mxGeometry x="740" y="300" width="30" height="60" as="geometry" />
        </mxCell>
        <mxCell id="DdpBlTYkTWgsv1LPXZCf-16" value="Jim" style="shape=umlActor;verticalLabelPosition=bottom;verticalAlign=top;html=1;outlineConnect=0;align=left;" vertex="1" parent="BB6XXCtX2lMVDvg097Rk-1">
          <mxGeometry x="750" y="310" width="30" height="60" as="geometry" />
        </mxCell>
        <mxCell id="DdpBlTYkTWgsv1LPXZCf-17" value="Jim" style="shape=umlActor;verticalLabelPosition=bottom;verticalAlign=top;html=1;outlineConnect=0;align=left;" vertex="1" parent="BB6XXCtX2lMVDvg097Rk-1">
          <mxGeometry x="760" y="320" width="30" height="60" as="geometry" />
        </mxCell>
        <mxCell id="DdpBlTYkTWgsv1LPXZCf-18" value="Jim" style="shape=umlActor;verticalLabelPosition=bottom;verticalAlign=top;html=1;outlineConnect=0;align=left;" vertex="1" parent="BB6XXCtX2lMVDvg097Rk-1">
          <mxGeometry x="770" y="330" width="30" height="60" as="geometry" />
        </mxCell>
        <mxCell id="DdpBlTYkTWgsv1LPXZCf-19" value="Bob" style="shape=umlActor;verticalLabelPosition=bottom;verticalAlign=top;html=1;outlineConnect=0;align=left;" vertex="1" parent="BB6XXCtX2lMVDvg097Rk-1">
          <mxGeometry x="520" y="260" width="30" height="60" as="geometry" />
        </mxCell>
        <mxCell id="DdpBlTYkTWgsv1LPXZCf-20" value="Bob" style="shape=umlActor;verticalLabelPosition=bottom;verticalAlign=top;html=1;outlineConnect=0;align=left;" vertex="1" parent="BB6XXCtX2lMVDvg097Rk-1">
          <mxGeometry x="530" y="270" width="30" height="60" as="geometry" />
        </mxCell>
        <mxCell id="DdpBlTYkTWgsv1LPXZCf-21" value="Bob" style="shape=umlActor;verticalLabelPosition=bottom;verticalAlign=top;html=1;outlineConnect=0;align=left;" vertex="1" parent="BB6XXCtX2lMVDvg097Rk-1">
          <mxGeometry x="540" y="280" width="30" height="60" as="geometry" />
        </mxCell>
        <mxCell id="DdpBlTYkTWgsv1LPXZCf-22" value="Bob" style="shape=umlActor;verticalLabelPosition=bottom;verticalAlign=top;html=1;outlineConnect=0;align=left;" vertex="1" parent="BB6XXCtX2lMVDvg097Rk-1">
          <mxGeometry x="550" y="290" width="30" height="60" as="geometry" />
        </mxCell>
        <mxCell id="DdpBlTYkTWgsv1LPXZCf-23" value="Bob" style="shape=umlActor;verticalLabelPosition=bottom;verticalAlign=top;html=1;outlineConnect=0;align=left;" vertex="1" parent="BB6XXCtX2lMVDvg097Rk-1">
          <mxGeometry x="560" y="300" width="30" height="60" as="geometry" />
        </mxCell>
        <mxCell id="DdpBlTYkTWgsv1LPXZCf-24" value="Bob" style="shape=umlActor;verticalLabelPosition=bottom;verticalAlign=top;html=1;outlineConnect=0;align=left;" vertex="1" parent="BB6XXCtX2lMVDvg097Rk-1">
          <mxGeometry x="570" y="310" width="30" height="60" as="geometry" />
        </mxCell>
        <mxCell id="DdpBlTYkTWgsv1LPXZCf-25" value="W5" style="rounded=1;whiteSpace=wrap;html=1;align=left;" vertex="1" parent="BB6XXCtX2lMVDvg097Rk-1">
          <mxGeometry x="765" y="520" width="120" height="60" as="geometry" />
        </mxCell>
        <mxCell id="DdpBlTYkTWgsv1LPXZCf-26" value="W6" style="rounded=1;whiteSpace=wrap;html=1;align=left;" vertex="1" parent="BB6XXCtX2lMVDvg097Rk-1">
          <mxGeometry x="910" y="520" width="120" height="60" as="geometry" />
        </mxCell>
        <mxCell id="DdpBlTYkTWgsv1LPXZCf-27" value="User sessions" style="rounded=1;whiteSpace=wrap;html=1;align=center;fontStyle=2;fillColor=#fff2cc;strokeColor=#d6b656;" vertex="1" parent="BB6XXCtX2lMVDvg097Rk-1">
          <mxGeometry x="240" y="640" width="770" height="60" as="geometry" />
        </mxCell>
        <mxCell id="DdpBlTYkTWgsv1LPXZCf-28" value="" style="endArrow=classic;startArrow=classic;html=1;" edge="1" parent="BB6XXCtX2lMVDvg097Rk-1" source="DdpBlTYkTWgsv1LPXZCf-27">
          <mxGeometry width="50" height="50" relative="1" as="geometry">
            <mxPoint x="370" y="630" as="sourcePoint" />
            <mxPoint x="420" y="580" as="targetPoint" />
          </mxGeometry>
        </mxCell>
        <mxCell id="DdpBlTYkTWgsv1LPXZCf-29" value="" style="endArrow=classic;startArrow=classic;html=1;entryX=0.361;entryY=0.985;entryDx=0;entryDy=0;entryPerimeter=0;exitX=0.533;exitY=-0.107;exitDx=0;exitDy=0;exitPerimeter=0;" edge="1" parent="BB6XXCtX2lMVDvg097Rk-1" source="DdpBlTYkTWgsv1LPXZCf-27" target="DdpBlTYkTWgsv1LPXZCf-1">
          <mxGeometry width="50" height="50" relative="1" as="geometry">
            <mxPoint x="566.6666666666667" y="650" as="sourcePoint" />
            <mxPoint x="430" y="590" as="targetPoint" />
          </mxGeometry>
        </mxCell>
      </root>
    </mxGraphModel>
  </diagram>
  <diagram id="-G4cgVmoHLIGjTLNJkvO" name="Page-3">
    <mxGraphModel dx="1422" dy="832" grid="1" gridSize="10" guides="1" tooltips="1" connect="1" arrows="1" fold="1" page="1" pageScale="1" pageWidth="1169" pageHeight="827" math="0" shadow="0">
      <root>
        <mxCell id="H7Bd8Zw8SNSjKZVl-8-M-0" />
        <mxCell id="H7Bd8Zw8SNSjKZVl-8-M-1" parent="H7Bd8Zw8SNSjKZVl-8-M-0" />
        <mxCell id="H7Bd8Zw8SNSjKZVl-8-M-2" value="VPC" style="points=[[0,0],[0.25,0],[0.5,0],[0.75,0],[1,0],[1,0.25],[1,0.5],[1,0.75],[1,1],[0.75,1],[0.5,1],[0.25,1],[0,1],[0,0.75],[0,0.5],[0,0.25]];outlineConnect=0;gradientColor=none;html=1;whiteSpace=wrap;fontSize=12;fontStyle=0;shape=mxgraph.aws4.group;grIcon=mxgraph.aws4.group_vpc;strokeColor=#248814;fillColor=none;verticalAlign=top;align=left;spacingLeft=30;fontColor=#AAB7B8;dashed=0;" vertex="1" parent="H7Bd8Zw8SNSjKZVl-8-M-1">
          <mxGeometry x="120" y="100" width="920" height="580" as="geometry" />
        </mxCell>
        <mxCell id="H7Bd8Zw8SNSjKZVl-8-M-3" value="Availability Zone" style="fillColor=none;strokeColor=#147EBA;dashed=1;verticalAlign=top;fontStyle=0;fontColor=#147EBA;align=center;" vertex="1" parent="H7Bd8Zw8SNSjKZVl-8-M-1">
          <mxGeometry x="230" y="30" width="280" height="740" as="geometry" />
        </mxCell>
        <mxCell id="H7Bd8Zw8SNSjKZVl-8-M-4" value="Availability Zone" style="fillColor=none;strokeColor=#147EBA;dashed=1;verticalAlign=top;fontStyle=0;fontColor=#147EBA;align=center;" vertex="1" parent="H7Bd8Zw8SNSjKZVl-8-M-1">
          <mxGeometry x="540" y="30" width="280" height="740" as="geometry" />
        </mxCell>
        <mxCell id="H7Bd8Zw8SNSjKZVl-8-M-5" value="Public 1" style="rounded=1;whiteSpace=wrap;html=1;align=center;" vertex="1" parent="H7Bd8Zw8SNSjKZVl-8-M-1">
          <mxGeometry x="270" y="190" width="210" height="150" as="geometry" />
        </mxCell>
        <mxCell id="H7Bd8Zw8SNSjKZVl-8-M-6" value="Public 2" style="rounded=1;whiteSpace=wrap;html=1;align=center;" vertex="1" parent="H7Bd8Zw8SNSjKZVl-8-M-1">
          <mxGeometry x="575" y="190" width="210" height="150" as="geometry" />
        </mxCell>
        <mxCell id="H7Bd8Zw8SNSjKZVl-8-M-7" value="Private 1" style="rounded=1;whiteSpace=wrap;html=1;align=center;" vertex="1" parent="H7Bd8Zw8SNSjKZVl-8-M-1">
          <mxGeometry x="270" y="414" width="210" height="150" as="geometry" />
        </mxCell>
        <mxCell id="H7Bd8Zw8SNSjKZVl-8-M-8" value="Private 2" style="rounded=1;whiteSpace=wrap;html=1;align=center;" vertex="1" parent="H7Bd8Zw8SNSjKZVl-8-M-1">
          <mxGeometry x="575" y="414" width="210" height="150" as="geometry" />
        </mxCell>
        <mxCell id="H7Bd8Zw8SNSjKZVl-8-M-9" value="" style="outlineConnect=0;fontColor=#232F3E;gradientColor=#F78E04;gradientDirection=north;fillColor=#D05C17;strokeColor=#ffffff;dashed=0;verticalLabelPosition=bottom;verticalAlign=top;align=center;html=1;fontSize=12;fontStyle=0;aspect=fixed;shape=mxgraph.aws4.resourceIcon;resIcon=mxgraph.aws4.ec2;" vertex="1" parent="H7Bd8Zw8SNSjKZVl-8-M-1">
          <mxGeometry x="250" y="500" width="78" height="78" as="geometry" />
        </mxCell>
        <mxCell id="H7Bd8Zw8SNSjKZVl-8-M-10" value="" style="outlineConnect=0;fontColor=#232F3E;gradientColor=#F78E04;gradientDirection=north;fillColor=#D05C17;strokeColor=#ffffff;dashed=0;verticalLabelPosition=bottom;verticalAlign=top;align=center;html=1;fontSize=12;fontStyle=0;aspect=fixed;shape=mxgraph.aws4.resourceIcon;resIcon=mxgraph.aws4.ec2;" vertex="1" parent="H7Bd8Zw8SNSjKZVl-8-M-1">
          <mxGeometry x="570" y="500" width="78" height="78" as="geometry" />
        </mxCell>
        <mxCell id="H7Bd8Zw8SNSjKZVl-8-M-11" value="" style="outlineConnect=0;fontColor=#232F3E;gradientColor=none;fillColor=#5A30B5;strokeColor=none;dashed=0;verticalLabelPosition=bottom;verticalAlign=top;align=center;html=1;fontSize=12;fontStyle=0;aspect=fixed;pointerEvents=1;shape=mxgraph.aws4.application_load_balancer;" vertex="1" parent="H7Bd8Zw8SNSjKZVl-8-M-1">
          <mxGeometry x="280" y="190" width="78" height="78" as="geometry" />
        </mxCell>
        <mxCell id="H7Bd8Zw8SNSjKZVl-8-M-12" value="" style="outlineConnect=0;fontColor=#232F3E;gradientColor=none;fillColor=#5A30B5;strokeColor=none;dashed=0;verticalLabelPosition=bottom;verticalAlign=top;align=center;html=1;fontSize=12;fontStyle=0;aspect=fixed;pointerEvents=1;shape=mxgraph.aws4.application_load_balancer;" vertex="1" parent="H7Bd8Zw8SNSjKZVl-8-M-1">
          <mxGeometry x="575" y="190" width="78" height="78" as="geometry" />
        </mxCell>
        <mxCell id="H7Bd8Zw8SNSjKZVl-8-M-13" value="" style="outlineConnect=0;fontColor=#232F3E;gradientColor=none;fillColor=#5A30B5;strokeColor=none;dashed=0;verticalLabelPosition=bottom;verticalAlign=top;align=center;html=1;fontSize=12;fontStyle=0;aspect=fixed;pointerEvents=1;shape=mxgraph.aws4.application_load_balancer;" vertex="1" parent="H7Bd8Zw8SNSjKZVl-8-M-1">
          <mxGeometry x="358" y="500" width="78" height="78" as="geometry" />
        </mxCell>
        <mxCell id="H7Bd8Zw8SNSjKZVl-8-M-14" value="" style="outlineConnect=0;fontColor=#232F3E;gradientColor=none;fillColor=#5A30B5;strokeColor=none;dashed=0;verticalLabelPosition=bottom;verticalAlign=top;align=center;html=1;fontSize=12;fontStyle=0;aspect=fixed;pointerEvents=1;shape=mxgraph.aws4.application_load_balancer;" vertex="1" parent="H7Bd8Zw8SNSjKZVl-8-M-1">
          <mxGeometry x="680" y="500" width="78" height="78" as="geometry" />
        </mxCell>
      </root>
    </mxGraphModel>
  </diagram>
  <diagram id="TCP7qQYQatgMRiZpwjst" name="Page-4">
    <mxGraphModel dx="474" dy="277" grid="1" gridSize="10" guides="1" tooltips="1" connect="1" arrows="1" fold="1" page="1" pageScale="1" pageWidth="1169" pageHeight="827" math="0" shadow="0">
      <root>
        <mxCell id="DQxNmZ7uP6EbReq6uRka-0" />
        <mxCell id="DQxNmZ7uP6EbReq6uRka-1" parent="DQxNmZ7uP6EbReq6uRka-0" />
        <mxCell id="DQxNmZ7uP6EbReq6uRka-9" value="DLQ" style="rounded=1;whiteSpace=wrap;html=1;align=center;" vertex="1" parent="DQxNmZ7uP6EbReq6uRka-1">
          <mxGeometry x="150" y="354" width="260" height="60" as="geometry" />
        </mxCell>
        <mxCell id="DQxNmZ7uP6EbReq6uRka-2" value="Application1 (Producer)" style="rounded=1;whiteSpace=wrap;html=1;align=left;" vertex="1" parent="DQxNmZ7uP6EbReq6uRka-1">
          <mxGeometry x="90" y="180" width="120" height="60" as="geometry" />
        </mxCell>
        <mxCell id="DQxNmZ7uP6EbReq6uRka-3" value="Application2 (Consumer)" style="rounded=1;whiteSpace=wrap;html=1;align=left;" vertex="1" parent="DQxNmZ7uP6EbReq6uRka-1">
          <mxGeometry x="380" y="180" width="120" height="60" as="geometry" />
        </mxCell>
        <mxCell id="DQxNmZ7uP6EbReq6uRka-4" value="SQS Q" style="rounded=1;whiteSpace=wrap;html=1;align=center;" vertex="1" parent="DQxNmZ7uP6EbReq6uRka-1">
          <mxGeometry x="150" y="290" width="260" height="60" as="geometry" />
        </mxCell>
        <mxCell id="DQxNmZ7uP6EbReq6uRka-5" value="Message1" style="shape=process;whiteSpace=wrap;html=1;backgroundOutline=1;align=center;fillColor=#f8cecc;strokeColor=#b85450;" vertex="1" parent="DQxNmZ7uP6EbReq6uRka-1">
          <mxGeometry x="320" y="370" width="70" height="20" as="geometry" />
        </mxCell>
        <mxCell id="DQxNmZ7uP6EbReq6uRka-6" value="" style="shape=flexArrow;endArrow=classic;html=1;exitX=0.5;exitY=1;exitDx=0;exitDy=0;entryX=0.986;entryY=0.056;entryDx=0;entryDy=0;entryPerimeter=0;" edge="1" parent="DQxNmZ7uP6EbReq6uRka-1" source="DQxNmZ7uP6EbReq6uRka-3" target="DQxNmZ7uP6EbReq6uRka-4">
          <mxGeometry width="50" height="50" relative="1" as="geometry">
            <mxPoint x="260" y="290" as="sourcePoint" />
            <mxPoint x="310" y="240" as="targetPoint" />
          </mxGeometry>
        </mxCell>
      </root>
    </mxGraphModel>
  </diagram>
  <diagram id="sDU2iBe_JCl9mvtn4XGQ" name="Page-5">
    <mxGraphModel dx="1422" dy="832" grid="1" gridSize="10" guides="1" tooltips="1" connect="1" arrows="1" fold="1" page="1" pageScale="1" pageWidth="1169" pageHeight="827" math="0" shadow="0">
      <root>
        <mxCell id="SAd3WKQRyzRP20VKeo1l-0" />
        <mxCell id="SAd3WKQRyzRP20VKeo1l-1" parent="SAd3WKQRyzRP20VKeo1l-0" />
        <mxCell id="SAd3WKQRyzRP20VKeo1l-9" value="" style="ellipse;whiteSpace=wrap;html=1;fontSize=15;align=center;" vertex="1" parent="SAd3WKQRyzRP20VKeo1l-1">
          <mxGeometry x="50" y="350" width="980" height="350" as="geometry" />
        </mxCell>
        <mxCell id="SAd3WKQRyzRP20VKeo1l-2" value="EC2 LINUX INSTANCE" style="rounded=1;whiteSpace=wrap;html=1;align=center;fontSize=15;" vertex="1" parent="SAd3WKQRyzRP20VKeo1l-1">
          <mxGeometry x="100" y="380" width="370" height="230" as="geometry" />
        </mxCell>
        <mxCell id="SAd3WKQRyzRP20VKeo1l-3" value="DOCKER CONTAINER RUNTIME" style="rounded=1;whiteSpace=wrap;html=1;align=left;fontSize=15;" vertex="1" parent="SAd3WKQRyzRP20VKeo1l-1">
          <mxGeometry x="160" y="384" width="290" height="60" as="geometry" />
        </mxCell>
        <mxCell id="SAd3WKQRyzRP20VKeo1l-4" value="nginx" style="rounded=1;whiteSpace=wrap;html=1;align=left;fontSize=15;" vertex="1" parent="SAd3WKQRyzRP20VKeo1l-1">
          <mxGeometry x="520" y="80" width="60" height="60" as="geometry" />
        </mxCell>
        <mxCell id="SAd3WKQRyzRP20VKeo1l-7" value="EC2 LINUX INSTANCE" style="rounded=1;whiteSpace=wrap;html=1;align=center;fontSize=15;" vertex="1" parent="SAd3WKQRyzRP20VKeo1l-1">
          <mxGeometry x="480" y="380" width="370" height="230" as="geometry" />
        </mxCell>
        <mxCell id="SAd3WKQRyzRP20VKeo1l-8" value="DOCKER CONTAINER RUNTIME" style="rounded=1;whiteSpace=wrap;html=1;align=left;fontSize=15;" vertex="1" parent="SAd3WKQRyzRP20VKeo1l-1">
          <mxGeometry x="520" y="380" width="290" height="60" as="geometry" />
        </mxCell>
        <mxCell id="SAd3WKQRyzRP20VKeo1l-10" value="ELASTIC CONTAINER SERVICE" style="text;html=1;strokeColor=none;fillColor=none;align=center;verticalAlign=middle;whiteSpace=wrap;rounded=0;fontSize=15;" vertex="1" parent="SAd3WKQRyzRP20VKeo1l-1">
          <mxGeometry x="480" y="640" width="40" height="20" as="geometry" />
        </mxCell>
        <mxCell id="SAd3WKQRyzRP20VKeo1l-11" value="ECS TASK&lt;br&gt;Run nginx" style="rounded=1;whiteSpace=wrap;html=1;align=left;fontSize=15;" vertex="1" parent="SAd3WKQRyzRP20VKeo1l-1">
          <mxGeometry x="110" y="80" width="120" height="60" as="geometry" />
        </mxCell>
        <mxCell id="SAd3WKQRyzRP20VKeo1l-13" value="" style="shape=flexArrow;endArrow=classic;html=1;fontSize=15;exitX=0.975;exitY=0.4;exitDx=0;exitDy=0;exitPerimeter=0;entryX=0;entryY=0.5;entryDx=0;entryDy=0;" edge="1" parent="SAd3WKQRyzRP20VKeo1l-1" source="SAd3WKQRyzRP20VKeo1l-11" target="SAd3WKQRyzRP20VKeo1l-4">
          <mxGeometry width="50" height="50" relative="1" as="geometry">
            <mxPoint x="530" y="460" as="sourcePoint" />
            <mxPoint x="580" y="410" as="targetPoint" />
          </mxGeometry>
        </mxCell>
        <mxCell id="SAd3WKQRyzRP20VKeo1l-14" value="ECS SERVICE&lt;br&gt;Run nginx at scale&lt;br&gt;&lt;br&gt;replicas = 4" style="rounded=1;whiteSpace=wrap;html=1;align=left;fontSize=15;" vertex="1" parent="SAd3WKQRyzRP20VKeo1l-1">
          <mxGeometry x="110" y="190" width="120" height="120" as="geometry" />
        </mxCell>
        <mxCell id="SAd3WKQRyzRP20VKeo1l-15" value="" style="shape=flexArrow;endArrow=classic;html=1;fontSize=15;entryX=0.425;entryY=0.983;entryDx=0;entryDy=0;entryPerimeter=0;" edge="1" parent="SAd3WKQRyzRP20VKeo1l-1" source="SAd3WKQRyzRP20VKeo1l-14" target="SAd3WKQRyzRP20VKeo1l-11">
          <mxGeometry width="50" height="50" relative="1" as="geometry">
            <mxPoint x="530" y="450" as="sourcePoint" />
            <mxPoint x="580" y="400" as="targetPoint" />
          </mxGeometry>
        </mxCell>
        <mxCell id="SAd3WKQRyzRP20VKeo1l-16" value="nginx" style="rounded=1;whiteSpace=wrap;html=1;align=left;fontSize=15;" vertex="1" parent="SAd3WKQRyzRP20VKeo1l-1">
          <mxGeometry x="255" y="340" width="60" height="60" as="geometry" />
        </mxCell>
        <mxCell id="SAd3WKQRyzRP20VKeo1l-17" value="nginx" style="rounded=1;whiteSpace=wrap;html=1;align=left;fontSize=15;" vertex="1" parent="SAd3WKQRyzRP20VKeo1l-1">
          <mxGeometry x="330" y="340" width="60" height="60" as="geometry" />
        </mxCell>
        <mxCell id="SAd3WKQRyzRP20VKeo1l-19" value="nginx" style="rounded=1;whiteSpace=wrap;html=1;align=left;fontSize=15;" vertex="1" parent="SAd3WKQRyzRP20VKeo1l-1">
          <mxGeometry x="655" y="330" width="60" height="60" as="geometry" />
        </mxCell>
        <mxCell id="SAd3WKQRyzRP20VKeo1l-20" value="nginx" style="rounded=1;whiteSpace=wrap;html=1;align=left;fontSize=15;" vertex="1" parent="SAd3WKQRyzRP20VKeo1l-1">
          <mxGeometry x="580" y="330" width="60" height="60" as="geometry" />
        </mxCell>
      </root>
    </mxGraphModel>
  </diagram>
  <diagram id="K6Yi8tr70KWp5AOILCX4" name="Page-6">
    <mxGraphModel dx="1038" dy="618" grid="1" gridSize="10" guides="1" tooltips="1" connect="1" arrows="1" fold="1" page="1" pageScale="1" pageWidth="1169" pageHeight="827" math="0" shadow="0">
      <root>
        <mxCell id="4jXBQFkJEzTzvu-HhAH1-0" />
        <mxCell id="4jXBQFkJEzTzvu-HhAH1-1" parent="4jXBQFkJEzTzvu-HhAH1-0" />
        <mxCell id="4jXBQFkJEzTzvu-HhAH1-2" value="" style="endArrow=none;html=1;fontSize=15;strokeWidth=10;" edge="1" parent="4jXBQFkJEzTzvu-HhAH1-1">
          <mxGeometry width="50" height="50" relative="1" as="geometry">
            <mxPoint x="659.5" y="714" as="sourcePoint" />
            <mxPoint x="659.5" y="94" as="targetPoint" />
          </mxGeometry>
        </mxCell>
        <mxCell id="4jXBQFkJEzTzvu-HhAH1-3" value="api.engie.com" style="text;html=1;strokeColor=none;fillColor=none;align=center;verticalAlign=middle;whiteSpace=wrap;rounded=0;fontSize=28;" vertex="1" parent="4jXBQFkJEzTzvu-HhAH1-1">
          <mxGeometry x="640" y="40" width="40" height="20" as="geometry" />
        </mxCell>
        <mxCell id="4jXBQFkJEzTzvu-HhAH1-4" value="/customers" style="text;html=1;strokeColor=none;fillColor=none;align=center;verticalAlign=middle;whiteSpace=wrap;rounded=0;fontSize=28;" vertex="1" parent="4jXBQFkJEzTzvu-HhAH1-1">
          <mxGeometry x="680" y="160" width="150" height="20" as="geometry" />
        </mxCell>
        <mxCell id="4jXBQFkJEzTzvu-HhAH1-6" value="/suppliers" style="text;html=1;strokeColor=none;fillColor=none;align=center;verticalAlign=middle;whiteSpace=wrap;rounded=0;fontSize=28;" vertex="1" parent="4jXBQFkJEzTzvu-HhAH1-1">
          <mxGeometry x="680" y="404" width="150" height="20" as="geometry" />
        </mxCell>
        <mxCell id="4jXBQFkJEzTzvu-HhAH1-7" value="GET" style="text;html=1;strokeColor=none;fillColor=none;align=center;verticalAlign=middle;whiteSpace=wrap;rounded=0;fontSize=28;" vertex="1" parent="4jXBQFkJEzTzvu-HhAH1-1">
          <mxGeometry x="735" y="200" width="40" height="20" as="geometry" />
        </mxCell>
        <mxCell id="4jXBQFkJEzTzvu-HhAH1-8" value="request:&lt;br&gt;HTTP GET https://api.engie.com/customers" style="shape=umlActor;verticalLabelPosition=bottom;verticalAlign=top;html=1;outlineConnect=0;align=left;fontSize=28;" vertex="1" parent="4jXBQFkJEzTzvu-HhAH1-1">
          <mxGeometry x="50" y="180" width="30" height="60" as="geometry" />
        </mxCell>
        <mxCell id="4jXBQFkJEzTzvu-HhAH1-9" value="" style="pointerEvents=1;shadow=0;dashed=0;html=1;strokeColor=none;fillColor=#434445;aspect=fixed;labelPosition=center;verticalLabelPosition=bottom;verticalAlign=top;align=center;outlineConnect=0;shape=mxgraph.vvd.virtual_machine;fontSize=28;" vertex="1" parent="4jXBQFkJEzTzvu-HhAH1-1">
          <mxGeometry x="1080" y="120" width="50" height="50" as="geometry" />
        </mxCell>
        <mxCell id="4jXBQFkJEzTzvu-HhAH1-11" value="" style="endArrow=classic;startArrow=classic;html=1;strokeWidth=10;fontSize=28;" edge="1" parent="4jXBQFkJEzTzvu-HhAH1-1" target="4jXBQFkJEzTzvu-HhAH1-13">
          <mxGeometry width="50" height="50" relative="1" as="geometry">
            <mxPoint x="800" y="220" as="sourcePoint" />
            <mxPoint x="620" y="400" as="targetPoint" />
          </mxGeometry>
        </mxCell>
        <mxCell id="4jXBQFkJEzTzvu-HhAH1-12" value="" style="outlineConnect=0;fontColor=#232F3E;gradientColor=#F78E04;gradientDirection=north;fillColor=#D05C17;strokeColor=#ffffff;dashed=0;verticalLabelPosition=bottom;verticalAlign=top;align=center;html=1;fontSize=12;fontStyle=0;aspect=fixed;shape=mxgraph.aws4.resourceIcon;resIcon=mxgraph.aws4.ec2;" vertex="1" parent="4jXBQFkJEzTzvu-HhAH1-1">
          <mxGeometry x="1070" y="210" width="78" height="78" as="geometry" />
        </mxCell>
        <mxCell id="4jXBQFkJEzTzvu-HhAH1-13" value="" style="outlineConnect=0;fontColor=#232F3E;gradientColor=#F78E04;gradientDirection=north;fillColor=#D05C17;strokeColor=#ffffff;dashed=0;verticalLabelPosition=bottom;verticalAlign=top;align=center;html=1;fontSize=12;fontStyle=0;aspect=fixed;shape=mxgraph.aws4.resourceIcon;resIcon=mxgraph.aws4.lambda;" vertex="1" parent="4jXBQFkJEzTzvu-HhAH1-1">
          <mxGeometry x="1066" y="310" width="78" height="78" as="geometry" />
        </mxCell>
      </root>
    </mxGraphModel>
  </diagram>
</mxfile>
